<mxfile host="app.diagrams.net" modified="2022-08-10T03:35:16.542Z" agent="5.0 (Windows NT 10.0; Win64; x64) AppleWebKit/537.36 (KHTML, like Gecko) Chrome/103.0.5060.114 Safari/537.36 OPR/89.0.4447.64" etag="RZLyN_8UKC3_fismn3-I" version="20.2.3" type="github">
  <diagram id="j24DrPOff47oLc61aFXJ" name="PÃ¡gina-1">
    <mxGraphModel dx="827" dy="1690" grid="1" gridSize="10" guides="1" tooltips="1" connect="1" arrows="1" fold="1" page="1" pageScale="1" pageWidth="827" pageHeight="1169" background="#283618" math="0" shadow="0">
      <root>
        <mxCell id="0" />
        <mxCell id="1" parent="0" />
        <mxCell id="TAHZ0MPodgGmkfMwxM8j-3" style="edgeStyle=orthogonalEdgeStyle;rounded=0;orthogonalLoop=1;jettySize=auto;html=1;exitX=0.5;exitY=1;exitDx=0;exitDy=0;exitPerimeter=0;strokeColor=#DDA15E;fontColor=#FEFAE0;labelBackgroundColor=#283618;" edge="1" parent="1" source="TAHZ0MPodgGmkfMwxM8j-2">
          <mxGeometry relative="1" as="geometry">
            <mxPoint x="210" y="120" as="targetPoint" />
          </mxGeometry>
        </mxCell>
        <mxCell id="TAHZ0MPodgGmkfMwxM8j-2" value="Inicio" style="strokeWidth=2;html=1;shape=mxgraph.flowchart.start_1;whiteSpace=wrap;fillColor=#BC6C25;strokeColor=#DDA15E;fontColor=#FEFAE0;" vertex="1" parent="1">
          <mxGeometry x="140" y="20" width="140" height="60" as="geometry" />
        </mxCell>
        <mxCell id="TAHZ0MPodgGmkfMwxM8j-7" style="edgeStyle=orthogonalEdgeStyle;rounded=0;orthogonalLoop=1;jettySize=auto;html=1;exitX=0.5;exitY=1;exitDx=0;exitDy=0;entryX=0.494;entryY=-0.114;entryDx=0;entryDy=0;entryPerimeter=0;strokeColor=#DDA15E;fontColor=#FEFAE0;labelBackgroundColor=#283618;" edge="1" parent="1" source="TAHZ0MPodgGmkfMwxM8j-4" target="TAHZ0MPodgGmkfMwxM8j-5">
          <mxGeometry relative="1" as="geometry" />
        </mxCell>
        <mxCell id="TAHZ0MPodgGmkfMwxM8j-4" value="Buscar el aceite" style="rounded=1;whiteSpace=wrap;html=1;absoluteArcSize=1;arcSize=14;strokeWidth=2;fillColor=#BC6C25;strokeColor=#DDA15E;fontColor=#FEFAE0;" vertex="1" parent="1">
          <mxGeometry x="130" y="130" width="160" height="70" as="geometry" />
        </mxCell>
        <mxCell id="TAHZ0MPodgGmkfMwxM8j-9" style="edgeStyle=orthogonalEdgeStyle;rounded=0;orthogonalLoop=1;jettySize=auto;html=1;exitX=0.5;exitY=1;exitDx=0;exitDy=0;entryX=0.5;entryY=0;entryDx=0;entryDy=0;entryPerimeter=0;strokeColor=#DDA15E;fontColor=#FEFAE0;labelBackgroundColor=#283618;" edge="1" parent="1" source="TAHZ0MPodgGmkfMwxM8j-5" target="TAHZ0MPodgGmkfMwxM8j-8">
          <mxGeometry relative="1" as="geometry" />
        </mxCell>
        <mxCell id="TAHZ0MPodgGmkfMwxM8j-5" value="Buscar sal y pinienta" style="rounded=1;whiteSpace=wrap;html=1;absoluteArcSize=1;arcSize=14;strokeWidth=2;fillColor=#BC6C25;strokeColor=#DDA15E;fontColor=#FEFAE0;" vertex="1" parent="1">
          <mxGeometry x="130" y="240" width="160" height="70" as="geometry" />
        </mxCell>
        <mxCell id="TAHZ0MPodgGmkfMwxM8j-6" style="edgeStyle=orthogonalEdgeStyle;rounded=0;orthogonalLoop=1;jettySize=auto;html=1;exitX=1;exitY=1;exitDx=0;exitDy=0;strokeColor=#DDA15E;fontColor=#FEFAE0;labelBackgroundColor=#283618;" edge="1" parent="1" source="TAHZ0MPodgGmkfMwxM8j-4">
          <mxGeometry relative="1" as="geometry">
            <mxPoint x="280" y="200" as="targetPoint" />
          </mxGeometry>
        </mxCell>
        <mxCell id="TAHZ0MPodgGmkfMwxM8j-10" value="Yes" style="edgeStyle=orthogonalEdgeStyle;rounded=0;orthogonalLoop=1;jettySize=auto;html=1;exitX=1;exitY=0.5;exitDx=0;exitDy=0;exitPerimeter=0;strokeColor=#DDA15E;fontColor=#FEFAE0;labelBackgroundColor=#283618;" edge="1" parent="1" source="TAHZ0MPodgGmkfMwxM8j-8">
          <mxGeometry relative="1" as="geometry">
            <mxPoint x="330" y="415" as="targetPoint" />
          </mxGeometry>
        </mxCell>
        <mxCell id="TAHZ0MPodgGmkfMwxM8j-11" value="No" style="edgeStyle=orthogonalEdgeStyle;rounded=0;orthogonalLoop=1;jettySize=auto;html=1;exitX=0.5;exitY=1;exitDx=0;exitDy=0;exitPerimeter=0;strokeColor=#DDA15E;fontColor=#FEFAE0;labelBackgroundColor=#283618;" edge="1" parent="1" source="TAHZ0MPodgGmkfMwxM8j-8">
          <mxGeometry relative="1" as="geometry">
            <mxPoint x="210" y="500" as="targetPoint" />
          </mxGeometry>
        </mxCell>
        <mxCell id="TAHZ0MPodgGmkfMwxM8j-13" style="edgeStyle=orthogonalEdgeStyle;rounded=0;orthogonalLoop=1;jettySize=auto;html=1;exitX=0;exitY=0.5;exitDx=0;exitDy=0;exitPerimeter=0;entryX=-0.007;entryY=0.633;entryDx=0;entryDy=0;entryPerimeter=0;strokeColor=#DDA15E;fontColor=#FEFAE0;labelBackgroundColor=#283618;" edge="1" parent="1" source="TAHZ0MPodgGmkfMwxM8j-8" target="TAHZ0MPodgGmkfMwxM8j-12">
          <mxGeometry relative="1" as="geometry" />
        </mxCell>
        <mxCell id="TAHZ0MPodgGmkfMwxM8j-8" value="Hay Huevo ?" style="strokeWidth=2;html=1;shape=mxgraph.flowchart.decision;whiteSpace=wrap;fillColor=#BC6C25;strokeColor=#DDA15E;fontColor=#FEFAE0;" vertex="1" parent="1">
          <mxGeometry x="145" y="360" width="130" height="110" as="geometry" />
        </mxCell>
        <mxCell id="TAHZ0MPodgGmkfMwxM8j-12" value="Comprar Huevo" style="rounded=1;whiteSpace=wrap;html=1;absoluteArcSize=1;arcSize=14;strokeWidth=2;fillColor=#BC6C25;strokeColor=#DDA15E;fontColor=#FEFAE0;" vertex="1" parent="1">
          <mxGeometry x="145" y="500" width="135" height="60" as="geometry" />
        </mxCell>
        <mxCell id="TAHZ0MPodgGmkfMwxM8j-16" value="" style="edgeStyle=orthogonalEdgeStyle;rounded=0;orthogonalLoop=1;jettySize=auto;html=1;strokeColor=#DDA15E;fontColor=#FEFAE0;labelBackgroundColor=#283618;" edge="1" parent="1" source="TAHZ0MPodgGmkfMwxM8j-14" target="TAHZ0MPodgGmkfMwxM8j-15">
          <mxGeometry relative="1" as="geometry" />
        </mxCell>
        <mxCell id="TAHZ0MPodgGmkfMwxM8j-14" value="Buscar la sarten" style="rounded=1;whiteSpace=wrap;html=1;absoluteArcSize=1;arcSize=14;strokeWidth=2;fillColor=#BC6C25;strokeColor=#DDA15E;fontColor=#FEFAE0;" vertex="1" parent="1">
          <mxGeometry x="340" y="370" width="100" height="80" as="geometry" />
        </mxCell>
        <mxCell id="TAHZ0MPodgGmkfMwxM8j-18" style="edgeStyle=orthogonalEdgeStyle;rounded=0;orthogonalLoop=1;jettySize=auto;html=1;exitX=1;exitY=0.5;exitDx=0;exitDy=0;entryX=0;entryY=0.5;entryDx=0;entryDy=0;entryPerimeter=0;strokeColor=#DDA15E;fontColor=#FEFAE0;labelBackgroundColor=#283618;" edge="1" parent="1" source="TAHZ0MPodgGmkfMwxM8j-15" target="TAHZ0MPodgGmkfMwxM8j-17">
          <mxGeometry relative="1" as="geometry" />
        </mxCell>
        <mxCell id="TAHZ0MPodgGmkfMwxM8j-15" value="Buscar la pala" style="rounded=1;whiteSpace=wrap;html=1;absoluteArcSize=1;arcSize=14;strokeWidth=2;fillColor=#BC6C25;strokeColor=#DDA15E;fontColor=#FEFAE0;" vertex="1" parent="1">
          <mxGeometry x="490" y="370" width="100" height="80" as="geometry" />
        </mxCell>
        <mxCell id="TAHZ0MPodgGmkfMwxM8j-20" value="No" style="edgeStyle=orthogonalEdgeStyle;rounded=0;orthogonalLoop=1;jettySize=auto;html=1;strokeColor=#DDA15E;fontColor=#FEFAE0;labelBackgroundColor=#283618;" edge="1" parent="1" source="TAHZ0MPodgGmkfMwxM8j-17" target="TAHZ0MPodgGmkfMwxM8j-19">
          <mxGeometry relative="1" as="geometry" />
        </mxCell>
        <mxCell id="TAHZ0MPodgGmkfMwxM8j-23" value="Si" style="edgeStyle=orthogonalEdgeStyle;rounded=0;orthogonalLoop=1;jettySize=auto;html=1;exitX=0.5;exitY=0;exitDx=0;exitDy=0;exitPerimeter=0;entryX=0.5;entryY=1.106;entryDx=0;entryDy=0;entryPerimeter=0;fontColor=#FEFAE0;strokeColor=#DDA15E;fillColor=#BC6C25;labelBackgroundColor=#283618;" edge="1" parent="1" source="TAHZ0MPodgGmkfMwxM8j-17" target="TAHZ0MPodgGmkfMwxM8j-22">
          <mxGeometry relative="1" as="geometry" />
        </mxCell>
        <mxCell id="TAHZ0MPodgGmkfMwxM8j-17" value="Tenemos gas" style="strokeWidth=2;html=1;shape=mxgraph.flowchart.decision;whiteSpace=wrap;fillColor=#BC6C25;strokeColor=#DDA15E;fontColor=#FEFAE0;" vertex="1" parent="1">
          <mxGeometry x="640" y="360" width="120" height="100" as="geometry" />
        </mxCell>
        <mxCell id="TAHZ0MPodgGmkfMwxM8j-19" value="Fin" style="strokeWidth=2;html=1;shape=mxgraph.flowchart.terminator;whiteSpace=wrap;fillColor=#BC6C25;strokeColor=#DDA15E;fontColor=#FEFAE0;" vertex="1" parent="1">
          <mxGeometry x="640" y="490" width="120" height="60" as="geometry" />
        </mxCell>
        <mxCell id="TAHZ0MPodgGmkfMwxM8j-21" value="Hacemos el huevo" style="rounded=1;whiteSpace=wrap;html=1;absoluteArcSize=1;arcSize=14;strokeWidth=2;fontColor=#FEFAE0;fillColor=#BC6C25;strokeColor=#DDA15E;" vertex="1" parent="1">
          <mxGeometry x="650" y="-10" width="100" height="80" as="geometry" />
        </mxCell>
        <mxCell id="TAHZ0MPodgGmkfMwxM8j-24" value="" style="edgeStyle=orthogonalEdgeStyle;rounded=0;orthogonalLoop=1;jettySize=auto;html=1;fontColor=#FEFAE0;strokeColor=#DDA15E;fillColor=#BC6C25;labelBackgroundColor=#283618;" edge="1" parent="1" source="TAHZ0MPodgGmkfMwxM8j-22" target="TAHZ0MPodgGmkfMwxM8j-21">
          <mxGeometry relative="1" as="geometry" />
        </mxCell>
        <mxCell id="TAHZ0MPodgGmkfMwxM8j-22" value="Encendemos el gas&amp;nbsp;" style="rounded=1;whiteSpace=wrap;html=1;absoluteArcSize=1;arcSize=14;strokeWidth=2;fontColor=#FEFAE0;fillColor=#BC6C25;strokeColor=#DDA15E;" vertex="1" parent="1">
          <mxGeometry x="650" y="260" width="100" height="65" as="geometry" />
        </mxCell>
        <mxCell id="TAHZ0MPodgGmkfMwxM8j-25" value="" style="verticalLabelPosition=bottom;verticalAlign=top;html=1;strokeWidth=2;shape=mxgraph.arrows2.arrow;dy=0.6;dx=40;notch=0;fontColor=#FEFAE0;fillColor=#BC6C25;rotation=-90;strokeColor=#DDA15E;" vertex="1" parent="1">
          <mxGeometry x="640" y="-190" width="100" height="70" as="geometry" />
        </mxCell>
        <mxCell id="TAHZ0MPodgGmkfMwxM8j-26" value="Colocamos la sarten" style="rounded=1;whiteSpace=wrap;html=1;absoluteArcSize=1;arcSize=14;strokeWidth=2;fontColor=#FEFAE0;fillColor=#BC6C25;" vertex="1" parent="1">
          <mxGeometry x="650" y="120" width="100" height="80" as="geometry" />
        </mxCell>
      </root>
    </mxGraphModel>
  </diagram>
</mxfile>
